<svg width="427" height="326" viewBox="0 0 427 326" fill="none" xmlns="http://www.w3.org/2000/svg">
<path fill-rule="evenodd" clip-rule="evenodd" d="M50 278.756V178.073C52.1716 154.777 78.7835 105.462 167.859 94.5648C175.953 93.1829 191.904 86.1548 190.956 69.0979V46H247.221V82.1275C250.351 81.9039 250.696 81.8491 251.983 81.6445C254.106 81.3071 258.793 80.5623 282.756 77.9817C311.776 77.9817 364.25 91.0113 377.516 147.868V272.241C362.513 276.387 316.514 276.979 316.514 240.259V155.567C321.844 143.13 271.503 107.002 247.221 155.567C245.762 172.198 245.826 182.418 245.871 189.471C245.917 196.734 245.942 200.637 244.259 204.724C242.482 219.728 229.334 253.052 190.956 266.318C176.347 271.451 131.139 282.309 98.5648 256.842C95.801 266.713 82.2186 284.915 50 278.756ZM161.344 145.499C139.756 145.499 122.255 162.999 122.255 184.587C122.255 206.176 139.756 223.676 161.344 223.676C182.932 223.676 200.432 206.176 200.432 184.587V145.499H161.344Z" fill="#70A9EE"/>
<path d="M50 138.785V59.4232C99.2755 50.4209 107.646 82.1262 105.672 99.1042C89.0888 96.7351 61.6477 124.571 50 138.785Z" fill="#014C9C"/>
</svg>
